<svg width="21" height="20" viewBox="0 0 21 20" fill="none" xmlns="http://www.w3.org/2000/svg">
<path fill-rule="evenodd" clip-rule="evenodd" d="M16.3334 1.66663C16.6023 2.9192 17.5808 3.89765 18.8334 4.16663C17.5808 4.4356 16.6023 5.41405 16.3334 6.66663C16.0644 5.41405 15.0859 4.4356 13.8334 4.16663C15.0859 3.89765 16.0644 2.9192 16.3334 1.66663ZM8.06006 1.8333C8.81964 5.37056 11.5828 8.13371 15.1201 8.89329C11.5828 9.65288 8.81964 12.416 8.06006 15.9533C7.30048 12.416 4.53733 9.65288 1.00006 8.89329C4.53733 8.13371 7.30048 5.37056 8.06006 1.8333ZM18.8334 15C17.1633 14.6413 15.8587 13.3367 15.5 11.6666C15.1414 13.3367 13.8368 14.6413 12.1667 15C13.8368 15.3586 15.1414 16.6632 15.5 18.3333C15.8587 16.6632 17.1633 15.3586 18.8334 15Z" fill="#387FF5"/>
</svg>
