<svg width="32" height="32" viewBox="0 0 32 32" fill="none" xmlns="http://www.w3.org/2000/svg">
<path fill-rule="evenodd" clip-rule="evenodd" d="M5.3335 7.77786C5.3335 7.16421 5.83096 6.66675 6.44461 6.66675H26.8891C27.5027 6.66675 28.0002 7.16421 28.0002 7.77786C28.0002 8.39151 27.5027 8.88897 26.8891 8.88897H6.44461C5.83096 8.88897 5.3335 8.39151 5.3335 7.77786ZM8.43483 15.7779C8.43483 15.1642 8.93229 14.6668 9.54594 14.6668H23.7945C24.4082 14.6668 24.9056 15.1642 24.9056 15.7779C24.9056 16.3915 24.4082 16.889 23.7945 16.889H9.54594C8.93229 16.889 8.43483 16.3915 8.43483 15.7779ZM6.44461 22.6668C5.83096 22.6668 5.3335 23.1642 5.3335 23.7779C5.3335 24.3915 5.83096 24.889 6.44461 24.889H26.8891C27.5027 24.889 28.0002 24.3915 28.0002 23.7779C28.0002 23.1642 27.5027 22.6668 26.8891 22.6668H6.44461Z" fill="#D3D6E2"/>
</svg>
