<svg width="32" height="32" viewBox="0 0 32 32" fill="none" xmlns="http://www.w3.org/2000/svg">
<path fill-rule="evenodd" clip-rule="evenodd" d="M9.33333 5C8.41286 5 7.66666 5.74619 7.66666 6.66667V12C7.66666 12.5523 7.21895 13 6.66666 13C6.11438 13 5.66666 12.5523 5.66666 12V6.66667C5.66666 4.64162 7.30829 3 9.33333 3H25.3333C27.3584 3 29 4.64162 29 6.66667V24C29 26.025 27.3584 27.6667 25.3333 27.6667H20C19.4477 27.6667 19 27.219 19 26.6667C19 26.1144 19.4477 25.6667 20 25.6667H25.3333C26.2538 25.6667 27 24.9205 27 24V6.66667C27 5.74619 26.2538 5 25.3333 5H9.33333ZM19 9.33333C19 8.78105 19.4477 8.33333 20 8.33333H22.6665H22.6667C23.2189 8.33333 23.6667 8.78105 23.6667 9.33333V12C23.6667 12.5523 23.2189 13 22.6667 13C22.1144 13 21.6667 12.5523 21.6667 12V11.7483L19.3759 14.0402C19.1877 14.2285 18.9431 14.3261 18.6965 14.3329C18.4675 14.3399 18.2349 14.2686 18.042 14.1142L15.4075 12.0067L14.0404 13.3738C13.6499 13.7643 13.0167 13.7643 12.6262 13.3738C12.2357 12.9832 12.2357 12.3501 12.6262 11.9596L14.621 9.96474C14.8143 9.76813 15.0737 9.6664 15.335 9.66667C15.4548 9.66679 15.575 9.68833 15.6895 9.73198C15.7884 9.76961 15.8825 9.82349 15.9678 9.89362L18.5933 11.9941L20.2532 10.3333H20C19.4477 10.3333 19 9.88562 19 9.33333ZM19 17.3333C19 16.781 19.4477 16.3333 20 16.3333H22.6667C23.2189 16.3333 23.6667 16.781 23.6667 17.3333C23.6667 17.8856 23.2189 18.3333 22.6667 18.3333H20C19.4477 18.3333 19 17.8856 19 17.3333ZM20 20.3333C19.4477 20.3333 19 20.781 19 21.3333C19 21.8856 19.4477 22.3333 20 22.3333H22.6667C23.2189 22.3333 23.6667 21.8856 23.6667 21.3333C23.6667 20.781 23.2189 20.3333 22.6667 20.3333H20ZM12.1305 20.9149C12.5211 21.3054 12.5213 21.9385 12.1308 22.3292L9.46561 24.9958C9.07524 25.3864 8.44217 25.3866 8.05152 24.9963L6.4501 23.3963C6.05941 23.006 6.05913 22.3728 6.44948 21.9821C6.83983 21.5914 7.473 21.5911 7.86369 21.9815L8.75781 22.8748L10.7163 20.9153C11.1067 20.5247 11.7398 20.5245 12.1305 20.9149ZM6.66666 15C3.90524 15 1.66666 17.2386 1.66666 20V25.3333C1.66666 28.0948 3.90524 30.3333 6.66666 30.3333H12C14.7614 30.3333 17 28.0948 17 25.3333V20C17 17.2386 14.7614 15 12 15H6.66666ZM3.66666 20C3.66666 18.3431 5.00981 17 6.66666 17H12C13.6569 17 15 18.3431 15 20V25.3333C15 26.9902 13.6569 28.3333 12 28.3333H6.66666C5.00981 28.3333 3.66666 26.9902 3.66666 25.3333V20Z" fill="#343844"/>
</svg>
