<svg width="40" height="40" viewBox="0 0 40 40" fill="none" xmlns="http://www.w3.org/2000/svg">
<path fill-rule="evenodd" clip-rule="evenodd" d="M19.1787 6.52917C19.1787 5.40235 20.0922 4.48888 21.219 4.48888H32.6447C33.7715 4.48888 34.6849 5.40235 34.6849 6.52917V17.9548C34.6849 19.0816 33.7715 19.9951 32.6447 19.9951H26.1157C25.4396 19.9951 24.8915 20.5432 24.8915 21.2193C24.8915 21.8954 25.4396 22.4434 26.1157 22.4434H32.6447C35.1237 22.4434 37.1333 20.4338 37.1333 17.9548V6.52917C37.1333 4.05016 35.1237 2.04053 32.6447 2.04053H21.219C18.74 2.04053 16.7304 4.05016 16.7304 6.52917V14.6903C16.7304 15.3664 17.2785 15.9145 17.9546 15.9145C18.6306 15.9145 19.1787 15.3664 19.1787 14.6903V6.52917ZM11.4751 4.84743C10.9971 4.36936 10.222 4.36936 9.74388 4.84743C9.26582 5.3255 9.26582 6.1006 9.74388 6.57867L10.1024 6.93723H8.16116C5.68215 6.93723 3.67252 8.94686 3.67252 11.4259V13.0581C3.67252 13.7342 4.2206 14.2823 4.89669 14.2823C5.57278 14.2823 6.12087 13.7342 6.12087 13.0581V11.4259C6.12087 10.299 7.03434 9.38558 8.16116 9.38558H10.1024L9.74388 9.74413C9.26582 10.2222 9.26582 10.9973 9.74388 11.4754C10.222 11.9534 10.9971 11.9534 11.4751 11.4754L13.9235 9.02702C14.0408 8.90965 14.1294 8.77438 14.1891 8.63C14.249 8.48566 14.282 8.32739 14.282 8.1614C14.282 7.99542 14.249 7.83715 14.1891 7.69281C14.1294 7.54842 14.0408 7.41315 13.9235 7.29578L11.4751 4.84743ZM34.2769 24.8918C34.953 24.8918 35.5011 25.4399 35.5011 26.116V27.7482C35.5011 30.2272 33.4914 32.2368 31.0124 32.2368H29.0711L29.4297 32.5954C29.9078 33.0735 29.9078 33.8486 29.4297 34.3266C28.9516 34.8047 28.1765 34.8047 27.6985 34.3266L25.2501 31.8783C25.1327 31.7609 25.0442 31.6256 24.9844 31.4813C24.9246 31.3369 24.8915 31.1787 24.8915 31.0127C24.8915 30.9915 24.8921 30.9705 24.8931 30.9497C24.9004 30.8066 24.9322 30.67 24.9844 30.5441C25.0442 30.3997 25.1327 30.2644 25.2501 30.147L27.6985 27.6987C28.1765 27.2206 28.9516 27.2206 29.4297 27.6987C29.9078 28.1768 29.9078 28.9519 29.4297 29.4299L29.0711 29.7885H31.0124C32.1392 29.7885 33.0527 28.875 33.0527 27.7482V26.116C33.0527 25.4399 33.6008 24.8918 34.2769 24.8918ZM6.93698 18.3629C4.23261 18.3629 2.04028 20.5552 2.04028 23.2596V25.2999V30.6046C2.04028 33.309 4.23261 35.5013 6.93698 35.5013H17.5465C20.2509 35.5013 22.4432 33.309 22.4432 30.6046V25.2999V23.2596C22.4432 20.5552 20.2509 18.3629 17.5465 18.3629H6.93698ZM4.48863 30.6046V26.524H19.9948V30.6046C19.9948 31.9568 18.8987 33.053 17.5465 33.053H6.93698C5.5848 33.053 4.48863 31.9568 4.48863 30.6046ZM4.48863 24.0757H19.9948V23.2596C19.9948 21.9074 18.8987 20.8112 17.5465 20.8112H6.93698C5.5848 20.8112 4.48863 21.9074 4.48863 23.2596V24.0757ZM21.6271 9.79364C21.6271 9.11754 22.1752 8.56946 22.8513 8.56946H31.0124C31.6885 8.56946 32.2366 9.11754 32.2366 9.79364C32.2366 10.4697 31.6885 11.0178 31.0124 11.0178H22.8513C22.1752 11.0178 21.6271 10.4697 21.6271 9.79364ZM27.748 13.4662C27.0719 13.4662 26.5238 14.0142 26.5238 14.6903C26.5238 15.3664 27.0719 15.9145 27.748 15.9145H31.0124C31.6885 15.9145 32.2366 15.3664 32.2366 14.6903C32.2366 14.0142 31.6885 13.4662 31.0124 13.4662H27.748Z" fill="#D3D6E2"/>
</svg>
