<svg width="40" height="40" viewBox="0 0 40 40" fill="none" xmlns="http://www.w3.org/2000/svg">
<path d="M19.4044 18.4796C22.1087 18.4796 24.3008 20.6717 24.3008 23.3761V30.7208C24.3008 33.4252 22.1087 35.6173 19.4044 35.6173H8.79498C6.0906 35.6173 3.89849 33.4252 3.89849 30.7208V23.3761C3.89849 20.6717 6.0906 18.4796 8.79498 18.4796H19.4044ZM31.1885 26.1827C31.6666 25.7047 32.4419 25.7047 32.92 26.1827L36.1846 29.4474C36.6625 29.9254 36.6626 30.7008 36.1846 31.1788L32.92 34.4435C32.442 34.9214 31.6666 34.9213 31.1885 34.4435C30.7105 33.9654 30.7106 33.1901 31.1885 32.712L32.3633 31.5372H27.9737C27.2976 31.5372 26.7491 30.9887 26.7491 30.3126C26.7493 29.6367 27.2977 29.089 27.9737 29.089H32.3633L31.1885 27.9142C30.7105 27.4361 30.7105 26.6608 31.1885 26.1827ZM6.34673 30.7208C6.34673 32.073 7.44279 33.1691 8.79498 33.1691H19.4044C20.7565 33.1691 21.8526 32.073 21.8526 30.7208V26.6407H6.34673V30.7208ZM8.79498 20.9279C7.44279 20.9279 6.34673 22.0239 6.34673 23.3761V24.1925H21.8526V23.3761C21.8526 22.0239 20.7565 20.9279 19.4044 20.9279H8.79498ZM30.8301 3.78918C33.5344 3.78925 35.7265 5.98145 35.7266 8.68567V16.0314C35.7264 18.7355 33.5343 20.9278 30.8301 20.9279H27.9737C27.2976 20.9279 26.7491 20.3793 26.7491 19.7032C26.7492 19.0273 27.2977 18.4796 27.9737 18.4796H30.8301C32.1821 18.4795 33.2782 17.3833 33.2784 16.0314V11.9503H17.7725V14.8068C17.7725 15.4829 17.224 16.0314 16.5479 16.0314C15.8718 16.0313 15.3243 15.4828 15.3243 14.8068V8.68567C15.3244 5.98141 17.5165 3.78918 20.2208 3.78918H30.8301ZM6.70513 4.96399C7.1832 4.48592 7.95851 4.48592 8.43658 4.96399C8.91447 5.44207 8.91459 6.21742 8.43658 6.69543L7.26177 7.87024H11.6514C12.3274 7.87031 12.875 8.41787 12.8751 9.09387C12.8751 9.76992 12.3275 10.3184 11.6514 10.3185H7.26177L8.43658 11.4933C8.91419 11.9713 8.91424 12.7458 8.43658 13.2238C7.95851 13.7018 7.1832 13.7018 6.70513 13.2238L3.44048 9.96008C2.96248 9.48208 2.96261 8.70672 3.44048 8.22864L6.70513 4.96399ZM20.2208 6.23743C18.8687 6.23743 17.7727 7.3336 17.7725 8.68567V9.50208H33.2784V8.68567C33.2782 7.33364 32.1822 6.23749 30.8301 6.23743H20.2208Z" fill="#343844"/>
</svg>
