<svg width="40" height="40" viewBox="0 0 40 40" fill="none" xmlns="http://www.w3.org/2000/svg">
<path fill-rule="evenodd" clip-rule="evenodd" d="M19.1787 6.52892C19.1787 5.4021 20.0922 4.48863 21.219 4.48863H32.6447C33.7715 4.48863 34.6849 5.4021 34.6849 6.52892V17.9546C34.6849 19.0814 33.7715 19.9948 32.6447 19.9948H26.1157C25.4396 19.9948 24.8915 20.5429 24.8915 21.219C24.8915 21.8951 25.4396 22.4432 26.1157 22.4432H32.6447C35.1237 22.4432 37.1333 20.4336 37.1333 17.9546V6.52892C37.1333 4.04992 35.1237 2.04028 32.6447 2.04028H21.219C18.74 2.04028 16.7304 4.04992 16.7304 6.52892V14.6901C16.7304 15.3662 17.2785 15.9143 17.9546 15.9143C18.6306 15.9143 19.1787 15.3662 19.1787 14.6901V6.52892ZM11.4751 4.84719C10.9971 4.36912 10.222 4.36912 9.74388 4.84719C9.26582 5.32526 9.26582 6.10036 9.74388 6.57843L10.1024 6.93698H8.16116C5.68215 6.93698 3.67252 8.94662 3.67252 11.4256V13.0579C3.67252 13.734 4.2206 14.282 4.89669 14.282C5.57278 14.282 6.12087 13.734 6.12087 13.0579V11.4256C6.12087 10.2988 7.03434 9.38533 8.16116 9.38533H10.1024L9.74388 9.74389C9.26582 10.222 9.26582 10.9971 9.74388 11.4751C10.222 11.9532 10.9971 11.9532 11.4751 11.4751L13.9235 9.02678C14.0408 8.90941 14.1294 8.77414 14.1891 8.62975C14.249 8.48541 14.282 8.32714 14.282 8.16116C14.282 7.99517 14.249 7.8369 14.1891 7.69256C14.1294 7.54818 14.0408 7.41291 13.9235 7.29554L11.4751 4.84719ZM34.2769 24.8915C34.953 24.8915 35.5011 25.4396 35.5011 26.1157V27.748C35.5011 30.227 33.4914 32.2366 31.0124 32.2366H29.0711L29.4297 32.5952C29.9078 33.0732 29.9078 33.8483 29.4297 34.3264C28.9516 34.8045 28.1765 34.8045 27.6985 34.3264L25.2501 31.878C25.1327 31.7607 25.0442 31.6254 24.9844 31.481C24.9246 31.3367 24.8915 31.1784 24.8915 31.0124C24.8915 30.9913 24.8921 30.9703 24.8931 30.9494C24.9004 30.8064 24.9322 30.6698 24.9844 30.5438C25.0442 30.3994 25.1327 30.2642 25.2501 30.1468L27.6985 27.6985C28.1765 27.2204 28.9516 27.2204 29.4297 27.6985C29.9078 28.1765 29.9078 28.9516 29.4297 29.4297L29.0711 29.7882H31.0124C32.1392 29.7882 33.0527 28.8748 33.0527 27.748V26.1157C33.0527 25.4396 33.6008 24.8915 34.2769 24.8915ZM6.93698 18.3626C4.23261 18.3626 2.04028 20.5549 2.04028 23.2593V25.2996V30.6044C2.04028 33.3087 4.23261 35.5011 6.93698 35.5011H17.5465C20.2509 35.5011 22.4432 33.3087 22.4432 30.6044V25.2996V23.2593C22.4432 20.5549 20.2509 18.3626 17.5465 18.3626H6.93698ZM4.48863 30.6044V26.5238H19.9948V30.6044C19.9948 31.9566 18.8987 33.0527 17.5465 33.0527H6.93698C5.5848 33.0527 4.48863 31.9566 4.48863 30.6044ZM4.48863 24.0754H19.9948V23.2593C19.9948 21.9071 18.8987 20.811 17.5465 20.811H6.93698C5.5848 20.811 4.48863 21.9071 4.48863 23.2593V24.0754ZM21.6271 9.79339C21.6271 9.1173 22.1752 8.56922 22.8513 8.56922H31.0124C31.6885 8.56922 32.2366 9.1173 32.2366 9.79339C32.2366 10.4695 31.6885 11.0176 31.0124 11.0176H22.8513C22.1752 11.0176 21.6271 10.4695 21.6271 9.79339ZM27.748 13.4659C27.0719 13.4659 26.5238 14.014 26.5238 14.6901C26.5238 15.3662 27.0719 15.9143 27.748 15.9143H31.0124C31.6885 15.9143 32.2366 15.3662 32.2366 14.6901C32.2366 14.014 31.6885 13.4659 31.0124 13.4659H27.748Z" fill="#343844"/>
</svg>
