<svg width="40" height="40" viewBox="0 0 40 40" fill="none" xmlns="http://www.w3.org/2000/svg">
<path d="M19.1787 19.0581C21.8831 19.0581 24.0752 21.2502 24.0752 23.9546V31.2993C24.0752 34.0037 21.8831 36.1968 19.1787 36.1968H8.56935C5.86497 36.1968 3.67286 34.0037 3.67286 31.2993V23.9546C3.67289 21.2502 5.86499 19.0581 8.56935 19.0581H19.1787ZM30.9629 26.7612C31.4409 26.2833 32.2163 26.2833 32.6943 26.7612L35.959 30.0259C36.4369 30.5039 36.4369 31.2793 35.959 31.7573L32.6943 35.022C32.2163 35.4999 31.441 35.4999 30.9629 35.022C30.4849 34.5439 30.4849 33.7686 30.9629 33.2905L32.1377 32.1157H27.7481C27.0721 32.1157 26.5237 31.568 26.5234 30.8921C26.5234 30.216 27.072 29.6675 27.7481 29.6675H32.1377L30.9629 28.4927C30.4849 28.0146 30.4849 27.2393 30.9629 26.7612ZM6.1211 31.2993C6.1211 32.6515 7.21716 33.7476 8.56935 33.7476H19.1787C20.5309 33.7476 21.627 32.6515 21.627 31.2993V27.2192H6.1211V31.2993ZM8.56935 21.5063C7.21717 21.5063 6.12113 22.6024 6.1211 23.9546V24.771H21.627V23.9546C21.6269 22.6024 20.5309 21.5063 19.1787 21.5063H8.56935ZM30.6045 4.36768C33.3087 4.36771 35.5008 6.55998 35.501 9.26416V16.6099C35.5008 19.3141 33.3088 21.5063 30.6045 21.5063H27.7481C27.072 21.5063 26.5234 20.9578 26.5234 20.2817C26.5236 19.6058 27.0721 19.0581 27.7481 19.0581H30.6045C31.9566 19.0581 33.0526 17.9619 33.0527 16.6099V12.5288H17.5469V15.3853C17.5469 16.0613 16.9984 16.6099 16.3223 16.6099C15.6462 16.6098 15.0986 16.0613 15.0986 15.3853V9.26416C15.0988 6.55996 17.2909 4.36768 19.9951 4.36768H30.6045ZM6.4795 5.54248C6.95757 5.06443 7.73288 5.06442 8.21095 5.54248C8.68892 6.02055 8.68897 6.79588 8.21095 7.27393L7.03614 8.44873H11.4258C12.1018 8.44877 12.6493 8.9964 12.6494 9.67236C12.6494 10.3484 12.1019 10.8969 11.4258 10.897H7.03614L8.21095 12.0718C8.68864 12.5498 8.68861 13.3242 8.21095 13.8022C7.73288 14.2803 6.95757 14.2803 6.4795 13.8022L3.21485 10.5386C2.73684 10.0606 2.73695 9.28521 3.21485 8.80713L6.4795 5.54248ZM19.9951 6.81592C18.6431 6.81592 17.5471 7.91215 17.5469 9.26416V10.0806H33.0527V9.26416C33.0525 7.91217 31.9565 6.81595 30.6045 6.81592H19.9951Z" fill="#D3D6E2"/>
</svg>
