<svg width="32" height="32" viewBox="0 0 32 32" fill="none" xmlns="http://www.w3.org/2000/svg">
<path fill-rule="evenodd" clip-rule="evenodd" d="M21.8479 4.85764C22.3215 4.57349 22.4751 3.95923 22.1909 3.48565C21.9068 3.01207 21.2925 2.85851 20.8189 3.14266L15.1511 6.54339C14.3356 7.03264 13.6766 7.74427 13.2514 8.59481L14.1367 9.03746L13.2514 8.59481L12.8613 9.37506C12.5141 10.0693 12.3334 10.8349 12.3334 11.6111V12.3335H8.66675C5.90532 12.3335 3.66675 14.5721 3.66675 17.3335V19.3335C3.66675 19.8858 4.11446 20.3335 4.66675 20.3335C5.21903 20.3335 5.66675 19.8858 5.66675 19.3335V17.3335C5.66675 15.6766 7.00989 14.3335 8.66675 14.3335H18.9194L16.3734 16.8806L16.3734 16.8806C15.1263 18.1281 15.1265 20.1503 16.3738 21.3976C17.4507 22.4744 19.1379 22.6413 20.4048 21.7965L23.0001 20.0658V24.0002C23.0001 25.6571 21.6569 27.0002 20.0001 27.0002H12.6667C12.1145 27.0002 11.6667 27.4479 11.6667 28.0002C11.6667 28.5525 12.1145 29.0002 12.6667 29.0002H20.0001C22.7615 29.0002 25.0001 26.7616 25.0001 24.0002V18.732L26.434 17.7758C27.5272 17.0468 28.3666 15.9958 28.8358 14.7685L30.2676 11.0239C30.4648 10.508 30.2065 9.92996 29.6907 9.73272C29.1748 9.53548 28.5967 9.79377 28.3995 10.3096L26.9677 14.0542C26.6467 14.894 26.0724 15.613 25.3244 16.1118L23.458 17.3565L23.4511 17.361L23.4341 17.3724L19.2952 20.1325C18.8215 20.4484 18.1907 20.386 17.788 19.9834C17.3217 19.517 17.3216 18.761 17.7879 18.2945L20.7075 15.3737C20.8949 15.1862 21.0002 14.9319 21.0002 14.6668V12.0001C21.0002 11.4478 20.5525 11.0001 20.0002 11.0001C19.4479 11.0001 19.0002 11.4478 19.0002 12.0001V12.3335H14.3334V11.6111C14.3334 11.1454 14.4418 10.686 14.6501 10.2695L15.0402 9.48923C15.2954 8.97891 15.6908 8.55193 16.18 8.25838L21.8479 4.85764ZM4.33341 28.0002C4.33341 27.4479 4.78113 27.0002 5.33341 27.0002H8.00008C8.55237 27.0002 9.00008 27.4479 9.00008 28.0002C9.00008 28.5524 8.55237 29.0002 8.00008 29.0002H5.33341C4.78113 29.0002 4.33341 28.5524 4.33341 28.0002ZM2.66675 23.0002C2.11446 23.0002 1.66675 23.4479 1.66675 24.0002C1.66675 24.5524 2.11446 25.0002 2.66675 25.0002H8.00008C8.55237 25.0002 9.00008 24.5524 9.00008 24.0002C9.00008 23.4479 8.55237 23.0002 8.00008 23.0002H2.66675Z" fill="#D3D6E2"/>
</svg>
