<svg width="32" height="32" viewBox="0 0 32 32" fill="none" xmlns="http://www.w3.org/2000/svg">
<path fill-rule="evenodd" clip-rule="evenodd" d="M21.8478 4.85764C22.3214 4.57349 22.475 3.95923 22.1908 3.48565C21.9067 3.01207 21.2924 2.85851 20.8188 3.14266L15.151 6.54339C14.3356 7.03264 13.6766 7.74427 13.2513 8.59481L14.1366 9.03746L13.2513 8.59481L12.8612 9.37506C12.514 10.0693 12.3333 10.8349 12.3333 11.6111V12.3335H8.66666C5.90524 12.3335 3.66666 14.5721 3.66666 17.3335V19.3335C3.66666 19.8858 4.11438 20.3335 4.66666 20.3335C5.21895 20.3335 5.66666 19.8858 5.66666 19.3335V17.3335C5.66666 15.6766 7.00981 14.3335 8.66666 14.3335H18.9193L16.3733 16.8806L16.3733 16.8806C15.1263 18.1281 15.1265 20.1503 16.3737 21.3976C17.4506 22.4744 19.1378 22.6413 20.4047 21.7965L23 20.0658V24.0002C23 25.6571 21.6569 27.0002 20 27.0002H12.6667C12.1144 27.0002 11.6667 27.4479 11.6667 28.0002C11.6667 28.5525 12.1144 29.0002 12.6667 29.0002H20C22.7614 29.0002 25 26.7616 25 24.0002V18.732L26.4339 17.7758C27.5271 17.0468 28.3665 15.9958 28.8358 14.7685L30.2675 11.0239C30.4648 10.508 30.2065 9.92996 29.6906 9.73272C29.1747 9.53548 28.5967 9.79377 28.3994 10.3096L26.9677 14.0542C26.6466 14.894 26.0723 15.613 25.3243 16.1118L23.4579 17.3565L23.451 17.361L23.434 17.3724L19.2951 20.1325C18.8214 20.4484 18.1906 20.386 17.788 19.9834C17.3216 19.517 17.3215 18.761 17.7878 18.2945L20.7074 15.3737C20.8948 15.1862 21.0001 14.9319 21.0001 14.6668V12.0001C21.0001 11.4478 20.5524 11.0001 20.0001 11.0001C19.4478 11.0001 19.0001 11.4478 19.0001 12.0001V12.3335H14.3333V11.6111C14.3333 11.1454 14.4418 10.686 14.65 10.2695L15.0402 9.48923C15.2953 8.97891 15.6907 8.55193 16.18 8.25838L21.8478 4.85764ZM4.33333 28.0002C4.33333 27.4479 4.78105 27.0002 5.33333 27.0002H8C8.55228 27.0002 9 27.4479 9 28.0002C9 28.5524 8.55228 29.0002 8 29.0002H5.33333C4.78105 29.0002 4.33333 28.5524 4.33333 28.0002ZM2.66666 23.0002C2.11438 23.0002 1.66666 23.4479 1.66666 24.0002C1.66666 24.5524 2.11438 25.0002 2.66666 25.0002H8C8.55228 25.0002 9 24.5524 9 24.0002C9 23.4479 8.55228 23.0002 8 23.0002H2.66666Z" fill="#343844"/>
</svg>
