<svg width="40" height="40" viewBox="0 0 40 40" fill="none" xmlns="http://www.w3.org/2000/svg">
<path fill-rule="evenodd" clip-rule="evenodd" d="M16.3213 3.83997C12.9397 3.83997 10.1984 6.58129 10.1984 9.96288V10.3717H9.78917C6.40758 10.3717 3.66626 13.113 3.66626 16.4946V29.5579C3.66626 32.9395 6.40758 35.6808 9.78917 35.6808H22.8525C26.2341 35.6808 28.9754 32.9395 28.9754 29.5579V29.1491H29.3846C32.7662 29.1491 35.5075 26.4078 35.5075 23.0262V9.96288C35.5075 6.58129 32.7662 3.83997 29.3846 3.83997H16.3213ZM26.527 29.1491H20.473C20.4581 29.1494 20.4432 29.1494 20.4284 29.1491H16.3213C12.9397 29.1491 10.1984 26.4078 10.1984 23.0262V12.82H9.78917C7.75977 12.82 6.11461 14.4652 6.11461 16.4946V29.5579C6.11461 31.5873 7.75977 33.2325 9.78917 33.2325H22.8525C24.8819 33.2325 26.527 31.5873 26.527 29.5579V29.1491ZM21.5531 26.7008H29.3846C31.414 26.7008 33.0592 25.0556 33.0592 23.0262V15.1951C30.2441 15.035 27.46 15.9725 25.3069 17.8346C22.8894 19.9256 21.5108 22.9719 21.5359 26.1682C21.5373 26.3459 21.543 26.5234 21.5531 26.7008ZM33.0592 12.7435C29.6595 12.5857 26.3064 13.7332 23.7053 15.9828C20.745 18.5432 19.0569 22.2735 19.0876 26.1873L19.0876 26.1874C19.089 26.3586 19.0936 26.5298 19.1015 26.7008H16.3213C14.2919 26.7008 12.6467 25.0556 12.6467 23.0262V9.96288C12.6467 7.93347 14.2919 6.28832 16.3213 6.28832H29.3846C31.414 6.28832 33.0592 7.93347 33.0592 9.96288V12.7435Z" fill="#343844"/>
</svg>
