<svg width="40" height="40" viewBox="0 0 40 40" fill="none" xmlns="http://www.w3.org/2000/svg">
<path fill-rule="evenodd" clip-rule="evenodd" d="M16.3212 3.83984C12.9396 3.83984 10.1983 6.58117 10.1983 9.96276V10.372H9.78905C6.40746 10.372 3.66614 13.1133 3.66614 16.4949V29.5582C3.66614 32.9398 6.40746 35.6811 9.78905 35.6811H22.8524C26.234 35.6811 28.9753 32.9398 28.9753 29.5582V29.149H29.3845C32.7661 29.149 35.5074 26.4077 35.5074 23.0261V9.96276C35.5074 6.58117 32.7661 3.83984 29.3845 3.83984H16.3212ZM26.5269 29.149H20.4889C20.4632 29.1498 20.4376 29.1498 20.4122 29.149H16.3212C12.9396 29.149 10.1983 26.4077 10.1983 23.0261V12.8203H9.78905C7.75965 12.8203 6.11449 14.4655 6.11449 16.4949V29.5582C6.11449 31.5876 7.75965 33.2328 9.78905 33.2328H22.8524C24.8818 33.2328 26.5269 31.5876 26.5269 29.5582V29.149ZM21.5529 26.7006H29.3845C31.4139 26.7006 33.059 25.0555 33.059 23.0261V15.1954C30.244 15.0353 27.4599 15.9727 25.3068 17.8349C22.8892 19.9258 21.5107 22.9722 21.5358 26.1684C21.5372 26.346 21.5429 26.5234 21.5529 26.7006ZM33.059 12.7438C29.6594 12.586 26.3062 13.7335 23.7052 15.9831C20.7448 18.5435 19.0568 22.2737 19.0875 26.1876L19.0875 26.1876C19.0888 26.3587 19.0935 26.5298 19.1014 26.7006H16.3212C14.2918 26.7006 12.6466 25.0555 12.6466 23.0261V9.96276C12.6466 7.93335 14.2918 6.28819 16.3212 6.28819H29.3845C31.4139 6.28819 33.059 7.93335 33.059 9.96276V12.7438Z" fill="#D3D6E2"/>
</svg>
