<svg width="19" height="18" viewBox="0 0 19 18" fill="none" xmlns="http://www.w3.org/2000/svg">
<path fill-rule="evenodd" clip-rule="evenodd" d="M16.5784 4.08455C16.8013 4.6733 16.9177 5.29782 16.9268 5.92733C16.9732 6.71947 16.9734 6.97854 16.975 8.98365L16.9751 9.01165C16.9751 11.0432 16.9643 11.2968 16.9285 12.0968C16.916 12.7197 16.7988 13.3334 16.5801 13.9155C16.1901 14.92 15.3959 15.715 14.3905 16.105C13.8084 16.3237 13.1939 16.441 12.5727 16.4534C11.7786 16.5 11.5183 16.5 9.48766 16.5H9.48754C7.45682 16.5 7.20319 16.4892 6.40238 16.4534C5.77869 16.4335 5.16416 16.3054 4.58538 16.0792C3.57917 15.6901 2.78501 14.8951 2.395 13.8905C2.17629 13.3076 2.05904 12.6939 2.04657 12.0719C2 11.2769 2 11.0174 2 8.9867C2 6.95599 2.01081 6.70236 2.04657 5.90155C2.05821 5.28036 2.17629 4.66582 2.395 4.08455C2.78418 3.07917 3.57917 2.28418 4.58455 1.895C5.16582 1.67629 5.78036 1.55904 6.40155 1.54574C7.1957 1.5 7.45599 1.5 9.4867 1.5C11.5174 1.5 11.7711 1.50998 12.571 1.54574C13.193 1.55904 13.8076 1.67629 14.3889 1.895C15.3942 2.28418 16.1884 3.07917 16.5784 4.08455ZM5.63733 8.98255C5.63733 11.1064 7.35786 12.8269 9.48171 12.8269C11.6039 12.8269 13.3261 11.1064 13.3261 8.98255C13.3261 6.85869 11.6039 5.13816 9.48171 5.13816C7.35786 5.13816 5.63733 6.85869 5.63733 8.98255ZM12.5827 4.99596C12.5827 5.49158 12.9827 5.8924 13.4791 5.8924C13.9739 5.8924 14.3747 5.49158 14.3747 4.99596C14.3747 4.50034 13.9739 4.09951 13.4791 4.09951C12.9827 4.09951 12.5827 4.50034 12.5827 4.99596ZM11.9789 8.98251C11.9789 10.3617 10.8608 11.4797 9.48167 11.4797C8.10248 11.4797 6.98444 10.3617 6.98444 8.98251C6.98444 7.60332 8.10248 6.48528 9.48167 6.48528C10.8608 6.48528 11.9789 7.60332 11.9789 8.98251Z" fill="#2E71E5"/>
</svg>
