<svg width="188" height="48" viewBox="0 0 188 48" fill="none" xmlns="http://www.w3.org/2000/svg">
<path fill-rule="evenodd" clip-rule="evenodd" d="M54.8628 24C54.8628 33.6986 47.0005 41.561 37.3018 41.561C27.6031 41.561 19.7408 33.6986 19.7408 24C19.7408 14.3013 27.6031 6.43903 37.3018 6.43903C47.0005 6.43903 54.8628 14.3013 54.8628 24ZM41.2882 13.7104C42.1277 13.1123 43.0469 13.6724 42.7802 14.6197L40.1398 24H44.8196C45.8019 24 45.9452 25.2923 45.0347 25.9409L33.3155 34.2896C32.4759 34.8877 31.5568 34.3276 31.8234 33.3803L33.9839 25.7052L38.8845 23.9761H32.8701V24H29.7841C28.8017 24 28.6585 22.7078 29.5689 22.0591L41.2882 13.7104ZM75.1703 31.0243H64.6759V15.957H68.4059V27.8633H75.1703V31.0243ZM79.112 25.6507C79.112 27.6105 79.8917 28.9171 81.3879 28.9171C82.8841 28.9171 83.6849 27.6105 83.6849 25.6507C83.6849 23.6909 82.8841 22.3633 81.3879 22.3633C79.8917 22.3633 79.112 23.6909 79.112 25.6507ZM87.1619 25.6507C87.1619 28.896 84.886 31.3615 81.409 31.3615C77.953 31.3615 75.6349 28.896 75.6349 25.6507C75.6349 22.4054 77.953 19.9399 81.409 19.9399C84.886 19.9399 87.1619 22.4054 87.1619 25.6507ZM93.1805 34.7543C94.7821 34.7543 96.194 34.396 97.1423 33.5531C98.0063 32.7734 98.5752 31.5933 98.5752 29.9707V20.2349H95.2878V21.3939H95.2457C94.6135 20.4877 93.6441 19.9188 92.2112 19.9188C89.5349 19.9188 87.6804 22.1525 87.6804 25.3135C87.6804 28.622 89.9352 30.4343 92.3587 30.4343C93.6652 30.4343 94.4871 29.9074 95.1192 29.191H95.2035V30.2657C95.2035 31.5722 94.5924 32.3309 93.1384 32.3309C92.0004 32.3309 91.4314 31.8462 91.2418 31.2772H87.9122C88.2494 33.532 90.2092 34.7543 93.1805 34.7543ZM93.1594 27.8844C91.874 27.8844 91.0311 26.8308 91.0311 25.2081C91.0311 23.5644 91.874 22.5108 93.1594 22.5108C94.5924 22.5108 95.3511 23.733 95.3511 25.1871C95.3511 26.7043 94.6556 27.8844 93.1594 27.8844ZM103.059 25.6507C103.059 27.6105 103.839 28.9171 105.335 28.9171C106.831 28.9171 107.632 27.6105 107.632 25.6507C107.632 23.6909 106.831 22.3633 105.335 22.3633C103.839 22.3633 103.059 23.6909 103.059 25.6507ZM111.109 25.6507C111.109 28.896 108.833 31.3615 105.356 31.3615C101.9 31.3615 99.5818 28.896 99.5818 25.6507C99.5818 22.4054 101.9 19.9399 105.356 19.9399C108.833 19.9399 111.109 22.4054 111.109 25.6507ZM112.112 31.0243H115.546V20.2348H112.112V31.0243ZM112.112 18.7386H115.546V15.957H112.112V18.7386ZM120.472 34.5857H117.037V20.2349H120.325V21.5414H120.388C121.126 20.572 122.179 19.9188 123.654 19.9188C126.52 19.9188 128.269 22.3843 128.269 25.6296C128.269 29.1277 126.394 31.3615 123.57 31.3615C122.179 31.3615 121.189 30.8136 120.514 29.9074H120.472V34.5857ZM120.367 25.756C120.367 27.5051 121.21 28.7063 122.685 28.7063C123.992 28.7063 124.792 27.5894 124.792 25.756C124.792 23.9016 124.097 22.6793 122.622 22.6793C121.126 22.6793 120.367 24.007 120.367 25.756ZM133.862 31.3615C136.685 31.3615 138.772 30.1392 138.772 27.7791C138.772 25.0185 136.538 24.5338 134.641 24.2177C134.473 24.1866 134.307 24.1577 134.145 24.1296L134.143 24.1293L134.143 24.1293L134.143 24.1293C132.988 23.9288 132.049 23.7658 132.049 23.1008C132.049 22.4265 132.703 22.1104 133.546 22.1104C134.494 22.1104 135.147 22.4054 135.274 23.3748H138.435C138.266 21.2464 136.622 19.9188 133.567 19.9188C131.017 19.9188 128.909 21.0989 128.909 23.3748C128.909 25.9035 130.911 26.4093 132.787 26.7254C132.937 26.7518 133.085 26.7767 133.231 26.801C134.479 27.0097 135.526 27.185 135.526 28.053C135.526 28.7484 134.873 29.1277 133.841 29.1277C132.703 29.1277 131.986 28.6009 131.86 27.5262H128.614C128.72 29.9074 130.701 31.3615 133.862 31.3615ZM146.662 29.6968C145.882 30.7504 144.934 31.3405 143.438 31.3405C140.951 31.3405 139.645 29.7179 139.645 27.3155V20.2349H143.058V26.599C143.058 27.7791 143.585 28.4324 144.681 28.4324C145.861 28.4324 146.578 27.5473 146.578 26.2619V20.2349H150.012V31.0244H146.725V29.6968H146.662ZM151.506 31.0243H154.941V24.9763C154.941 23.6909 155.573 22.7847 156.648 22.7847C157.68 22.7847 158.165 23.4591 158.165 24.6181V31.0243H161.6V24.9763C161.6 23.6909 162.211 22.7847 163.307 22.7847C164.34 22.7847 164.824 23.4591 164.824 24.6181V31.0243H168.259V24.007C168.259 21.5835 167.037 19.9188 164.592 19.9188C163.202 19.9188 162.043 20.5088 161.2 21.8153H161.158C160.61 20.6563 159.535 19.9188 158.123 19.9188C156.564 19.9188 155.531 20.6563 154.857 21.7732H154.793V20.2349H151.506V31.0243Z" fill="#A7ADC5"/>
</svg>
