<svg width="40" height="40" viewBox="0 0 40 40" fill="none" xmlns="http://www.w3.org/2000/svg">
<path d="M32.6448 15.9247C35.1237 15.9248 37.1329 17.9341 37.1331 20.413V31.8388C37.1331 34.3178 35.1237 36.327 32.6448 36.3271H26.1155C23.6366 36.3269 21.6272 34.3177 21.6272 31.8388V20.413C21.6273 17.9342 23.6367 15.9249 26.1155 15.9247H32.6448ZM27.0491 4.49895C29.9139 4.49895 32.2366 6.82162 32.2366 9.68645V12.2519C32.2366 12.928 31.6881 13.4765 31.012 13.4765C30.3361 13.4762 29.7883 12.9278 29.7883 12.2519V9.68645C29.7883 8.1738 28.5617 6.94719 27.0491 6.94719H7.22778C5.71514 6.94719 4.48853 8.1738 4.48853 9.68645V22.9794C4.4887 24.4919 5.71525 25.7177 7.22778 25.7177H17.9543C18.6304 25.7177 19.179 26.2662 19.179 26.9423C19.1789 27.6183 18.6304 28.1659 17.9543 28.1659H14.0208L13.511 32.247H16.3215C16.9975 32.247 17.5459 32.7947 17.5461 33.4706C17.5461 34.1467 16.9976 34.6952 16.3215 34.6952H9.67505C8.99914 34.695 8.45142 34.1466 8.45142 33.4706C8.45166 32.7949 8.99929 32.2472 9.67505 32.247H11.0432L11.553 28.1659H7.22778C4.36306 28.1659 2.04046 25.8441 2.04028 22.9794V9.68645C2.04028 6.82162 4.36295 4.49895 7.22778 4.49895H27.0491ZM26.1155 18.373C24.9888 18.3731 24.0755 19.2864 24.0754 20.413V31.8388C24.0754 32.9655 24.9888 33.8787 26.1155 33.8788H32.6448C33.7715 33.8788 34.6848 32.9656 34.6848 31.8388V20.413C34.6847 19.2863 33.7715 18.373 32.6448 18.373H26.1155ZM28.5227 29.5859C29.0008 29.1078 29.7761 29.1078 30.2542 29.5859L30.262 29.5937C30.74 30.0717 30.74 30.847 30.262 31.3251L30.2542 31.3339C29.7761 31.8118 29.0007 31.8117 28.5227 31.3339L28.5149 31.3251C28.0368 30.847 28.0368 30.0717 28.5149 29.5937L28.5227 29.5859ZM31.012 24.9023C31.688 24.9023 32.2365 25.4499 32.2366 26.1259C32.2366 26.802 31.6881 27.3505 31.012 27.3505H27.7483C27.0722 27.3505 26.5237 26.802 26.5237 26.1259C26.5238 25.4499 27.0722 24.9023 27.7483 24.9023H31.012ZM31.012 20.8212C31.6881 20.8212 32.2366 21.3697 32.2366 22.0458C32.2364 22.7217 31.6879 23.2695 31.012 23.2695H27.7483C27.0723 23.2695 26.5239 22.7217 26.5237 22.0458C26.5237 21.3697 27.0722 20.8212 27.7483 20.8212H31.012ZM17.9543 17.5566C18.6304 17.5566 19.179 18.1051 19.179 18.7812C19.1789 19.4572 18.6304 20.0048 17.9543 20.0048H15.5061C14.8301 20.0047 14.2826 19.4571 14.2825 18.7812C14.2825 18.1051 14.8301 17.5566 15.5061 17.5566H17.9543ZM8.92798 11.3866C9.40605 10.9086 10.1814 10.9086 10.6594 11.3866L13.093 13.8202C13.5711 14.2983 13.5711 15.0736 13.093 15.5517L10.6594 17.9853C10.1814 18.4633 9.40605 18.4633 8.92798 17.9853C8.44993 17.5072 8.44991 16.7319 8.92798 16.2538L10.4963 14.6864L8.92798 13.1181C8.44991 12.64 8.44992 11.8647 8.92798 11.3866Z" fill="#343844"/>
</svg>
