<svg width="40" height="40" viewBox="0 0 40 40" fill="none" xmlns="http://www.w3.org/2000/svg">
<path d="M32.6448 15.6196C35.1236 15.6197 37.1329 17.6291 37.1331 20.1079V31.5337C37.1331 34.0127 35.1237 36.0229 32.6448 36.0229H26.1155C23.6366 36.0228 21.6272 34.0126 21.6272 31.5337V20.1079C21.6274 17.6292 23.6367 15.6198 26.1155 15.6196H32.6448ZM27.0491 4.19385C29.9139 4.19385 32.2366 6.51652 32.2366 9.38135V11.9468C32.2366 12.6229 31.6881 13.1714 31.012 13.1714C30.3361 13.1711 29.7883 12.6227 29.7883 11.9468V9.38135C29.7883 7.8687 28.5617 6.64209 27.0491 6.64209H7.22778C5.71514 6.64209 4.48853 7.8687 4.48853 9.38135V22.6743C4.4887 24.1868 5.71525 25.4126 7.22778 25.4126H17.9543C18.6304 25.4126 19.179 25.9611 19.179 26.6372C19.1789 27.3132 18.6304 27.8608 17.9543 27.8608H14.0208L13.511 31.9419H16.3215C16.9976 31.9419 17.5461 32.4904 17.5461 33.1665C17.546 33.8424 16.9975 34.3901 16.3215 34.3901H9.67505C8.99926 34.3899 8.45161 33.8423 8.45142 33.1665C8.45142 32.4905 8.99914 31.9421 9.67505 31.9419H11.0432L11.553 27.8608H7.22778C4.36306 27.8608 2.04046 25.539 2.04028 22.6743V9.38135C2.04028 6.51652 4.36295 4.19385 7.22778 4.19385H27.0491ZM26.1155 18.0679C24.9889 18.068 24.0756 18.9813 24.0754 20.1079V31.5337C24.0754 32.6604 24.9888 33.5736 26.1155 33.5737H32.6448C33.7715 33.5737 34.6848 32.6605 34.6848 31.5337V20.1079C34.6846 18.9813 33.7714 18.0679 32.6448 18.0679H26.1155ZM28.5227 29.2808C29.0008 28.8027 29.7761 28.8027 30.2542 29.2808L30.262 29.2886C30.74 29.7666 30.74 30.5419 30.262 31.02L30.2542 31.0278C29.7761 31.5059 29.0008 31.5059 28.5227 31.0278L28.5149 31.02C28.0368 30.5419 28.0368 29.7666 28.5149 29.2886L28.5227 29.2808ZM31.012 24.5972C31.688 24.5972 32.2364 25.1448 32.2366 25.8208C32.2366 26.4969 31.6881 27.0454 31.012 27.0454H27.7483C27.0722 27.0454 26.5237 26.4969 26.5237 25.8208C26.5238 25.1448 27.0723 24.5972 27.7483 24.5972H31.012ZM31.012 20.5161C31.6881 20.5161 32.2366 21.0646 32.2366 21.7407C32.2365 22.4167 31.688 22.9644 31.012 22.9644H27.7483C27.0723 22.9644 26.5238 22.4167 26.5237 21.7407C26.5237 21.0646 27.0722 20.5161 27.7483 20.5161H31.012ZM17.9543 17.2515C18.6304 17.2515 19.179 17.8 19.179 18.4761C19.1789 19.1522 18.6304 19.7007 17.9543 19.7007H15.5061C14.8301 19.7006 14.2825 19.1521 14.2825 18.4761C14.2825 17.8 14.8301 17.2515 15.5061 17.2515H17.9543ZM8.92798 11.0815C9.40605 10.6035 10.1814 10.6035 10.6594 11.0815L13.093 13.5151C13.5711 13.9932 13.571 14.7685 13.093 15.2466L10.6594 17.6802C10.1814 18.1582 9.40605 18.1582 8.92798 17.6802C8.45004 17.2021 8.45003 16.4278 8.92798 15.9497L10.4963 14.3813L8.92798 12.813C8.44991 12.3349 8.44991 11.5596 8.92798 11.0815Z" fill="#D3D6E2"/>
</svg>
