<svg width="40" height="40" viewBox="0 0 40 40" fill="none" xmlns="http://www.w3.org/2000/svg">
<path d="M19.5866 4.02072C20.2626 4.02072 20.8111 4.56836 20.8112 5.24435C20.8112 5.92045 20.2627 6.46896 19.5866 6.46896H9.09247C8.30436 6.4691 7.54817 6.78177 6.99091 7.33908C6.43367 7.89639 6.12085 8.65254 6.12079 9.44064V23.8996C6.12089 25.5411 7.452 26.8714 9.09344 26.8713H30.0817C30.8698 26.8708 31.6262 26.5576 32.1833 26.0002C32.7404 25.4426 33.0527 24.6859 33.0524 23.8977V21.5666C33.0526 20.8907 33.601 20.343 34.277 20.343C34.953 20.3431 35.5005 20.8907 35.5007 21.5666V23.8977C35.501 25.335 34.9307 26.7139 33.9147 27.7307C32.8985 28.7476 31.5194 29.3191 30.0817 29.3195H24.238L24.7487 33.4006H25.8825C26.5586 33.4006 27.1061 33.9491 27.1061 34.6252C27.1059 35.3011 26.5584 35.8488 25.8825 35.8488H13.2917C12.6157 35.8488 12.0673 35.3011 12.0671 34.6252C12.0671 33.9491 12.6156 33.4006 13.2917 33.4006H14.4255L14.9362 29.3195H9.09344C6.09982 29.3196 3.67267 26.8933 3.67255 23.8996V9.44064C3.67262 8.00322 4.24406 6.62507 5.26044 5.60861C6.27686 4.59211 7.65499 4.02086 9.09247 4.02072H19.5866ZM16.8932 33.4006H22.2809L21.7702 29.3195H17.403L16.8932 33.4006ZM28.5475 4.1467C29.5228 3.44058 30.8389 3.43406 31.82 4.12814L31.8425 4.14474C32.8421 4.86469 34.0163 5.30447 35.2429 5.41818C36.2861 5.5036 37.1001 6.35871 37.1325 7.40646C37.133 7.4239 37.1337 7.44192 37.1335 7.4592V11.3567C37.1335 13.257 35.9513 14.7594 34.8063 15.7863C33.6325 16.8392 32.2734 17.5966 31.4626 18.0022L31.4479 18.009C30.6541 18.4025 29.7205 18.3999 28.9284 18.0012L28.9255 18.0002C28.1135 17.5938 26.7578 16.8362 25.5866 15.7854C24.442 14.7583 23.2595 13.2554 23.2595 11.3567C23.2595 11.3428 23.26 11.3291 23.2604 11.3156L23.2595 7.47092C23.2589 7.45033 23.2588 7.42846 23.2595 7.40646C23.2919 6.35797 24.1077 5.5026 25.152 5.41818C26.3731 5.30465 27.5422 4.86812 28.5388 4.15353L28.5475 4.1467ZM19.5866 13.8137C20.2627 13.8137 20.8112 14.3622 20.8112 15.0383C20.811 15.7142 20.2626 16.2619 19.5866 16.2619H17.9548C17.2788 16.2619 16.7303 15.7142 16.7302 15.0383C16.7302 14.3622 17.2787 13.8137 17.9548 13.8137H19.5866ZM30.4089 6.13009C30.284 6.03971 30.1162 6.03786 29.9899 6.12521L29.9811 6.13107C28.7179 7.04089 27.2491 7.62001 25.7087 7.81857V11.3567C25.7087 11.3678 25.708 11.3794 25.7077 11.3899C25.7216 12.2287 26.2662 13.1052 27.2224 13.9631C28.1616 14.8058 29.3001 15.4492 30.027 15.8127L30.0329 15.8166C30.137 15.8677 30.2593 15.8669 30.363 15.8147L30.3796 15.8059C31.1079 15.4407 32.2384 14.8011 33.1716 13.9641C34.1331 13.1017 34.6783 12.2193 34.6852 11.3733V7.81955C33.1528 7.62214 31.6911 7.04724 30.4323 6.14572L30.4089 6.13009ZM19.5866 8.9172C20.2626 8.9172 20.811 9.46494 20.8112 10.1408C20.8112 10.8169 20.2627 11.3654 19.5866 11.3654H16.322C15.646 11.3652 15.0983 10.8168 15.0983 10.1408C15.0986 9.46507 15.6462 8.9174 16.322 8.9172H19.5866Z" fill="#D3D6E2"/>
</svg>
