<svg width="40" height="40" viewBox="0 0 40 40" fill="none" xmlns="http://www.w3.org/2000/svg">
<path d="M19.5867 4.01992C20.2626 4.01992 20.8111 4.56764 20.8113 5.24355C20.8113 5.91964 20.2628 6.46816 19.5867 6.46816H9.09253C8.30443 6.46829 7.54824 6.78099 6.99097 7.33828C6.43361 7.89568 6.12082 8.65256 6.12085 9.44082V23.8988C6.12095 25.5403 7.45206 26.8715 9.09351 26.8715H30.0808C30.869 26.8711 31.6252 26.5569 32.1824 25.9994C32.7396 25.4418 33.0527 24.6861 33.0525 23.8978V21.5658C33.0527 20.8899 33.6012 20.3422 34.2771 20.3422C34.9529 20.3423 35.5005 20.89 35.5007 21.5658V23.8969C35.5011 25.3342 34.9307 26.7131 33.9148 27.7299C32.8985 28.7468 31.5195 29.3192 30.0818 29.3197H24.238L24.7488 33.3998H25.8826C26.5586 33.3999 27.1062 33.9484 27.1062 34.6244C27.1061 35.3003 26.5585 35.848 25.8826 35.848H13.2917C12.6157 35.848 12.0673 35.3004 12.0671 34.6244C12.0671 33.9483 12.6157 33.3998 13.2917 33.3998H14.4255L14.9363 29.3197H9.09351C6.09989 29.3198 3.67274 26.8925 3.67261 23.8988V9.44082C3.67256 8.00341 4.24327 6.62434 5.25952 5.60781C6.27596 4.5913 7.65502 4.02005 9.09253 4.01992H19.5867ZM16.8933 33.3998H22.281L21.7703 29.3197H17.4031L16.8933 33.3998ZM28.5476 4.1459C29.5227 3.43991 30.8381 3.43364 31.8191 4.12734L31.8425 4.14394C32.8421 4.86389 34.0164 5.30367 35.2429 5.41738C36.2863 5.50284 37.1003 6.35868 37.1326 7.40664C37.1331 7.42397 37.1337 7.44122 37.1335 7.4584V11.3568C37.1334 13.2571 35.9513 14.7596 34.8064 15.7865C33.6327 16.8392 32.2735 17.5958 31.4626 18.0014L31.448 18.0082C30.6541 18.4017 29.7206 18.3991 28.9285 18.0004L28.9255 17.9994C28.1136 17.593 26.7578 16.8354 25.5867 15.7846C24.4422 14.7576 23.2597 13.2554 23.2595 11.3568C23.2595 11.3428 23.26 11.3285 23.2605 11.3148L23.2595 7.47011C23.259 7.44966 23.2589 7.42849 23.2595 7.40664C23.2918 6.35798 24.1077 5.50181 25.1521 5.41738C26.3732 5.30384 27.5423 4.86731 28.5388 4.15273L28.5476 4.1459ZM19.5867 13.8129C20.2628 13.8129 20.8113 14.3614 20.8113 15.0375C20.8112 15.7135 20.2627 16.2611 19.5867 16.2611H17.9548C17.2788 16.2611 16.7303 15.7135 16.7302 15.0375C16.7302 14.3614 17.2787 13.8129 17.9548 13.8129H19.5867ZM30.4089 6.12929C30.2841 6.03894 30.1163 6.03715 29.99 6.12441L29.9812 6.13125C28.718 7.04101 27.2491 7.6202 25.7087 7.81875V11.3568C25.7087 11.3679 25.7081 11.3787 25.7078 11.3891C25.7216 12.228 26.2662 13.1043 27.2224 13.9623C28.1617 14.805 29.3002 15.4494 30.0271 15.8129L30.033 15.8158C30.1371 15.8669 30.2593 15.8661 30.363 15.8139L30.3796 15.8051C31.108 15.4399 32.2385 14.8003 33.1716 13.9633C34.1331 13.1009 34.6784 12.2185 34.6853 11.3725V7.81875C33.153 7.62136 31.6911 7.0473 30.4324 6.1459L30.4089 6.12929ZM19.5867 8.9164C20.2628 8.9164 20.8113 9.46492 20.8113 10.141C20.8111 10.8169 20.2626 11.3646 19.5867 11.3646H16.322C15.6462 11.3645 15.0986 10.8168 15.0984 10.141C15.0984 9.46502 15.6461 8.91657 16.322 8.9164H19.5867Z" fill="#343844"/>
</svg>
