<svg width="25" height="24" viewBox="0 0 25 24" fill="none" xmlns="http://www.w3.org/2000/svg">
<path fill-rule="evenodd" clip-rule="evenodd" d="M19.5 2C19.8228 3.50309 20.9969 4.67723 22.5 5C20.9969 5.32277 19.8228 6.49691 19.5 8C19.1772 6.49691 18.0031 5.32277 16.5 5C18.0031 4.67723 19.1772 3.50309 19.5 2ZM9.57204 2.2C10.4835 6.44472 13.7993 9.7605 18.044 10.672C13.7993 11.5835 10.4835 14.8993 9.57204 19.144C8.66054 14.8993 5.34475 11.5835 1.10004 10.672C5.34475 9.7605 8.66054 6.44472 9.57204 2.2ZM22.5 18C20.4959 17.5696 18.9303 16.0041 18.5 14C18.0696 16.0041 16.5041 17.5696 14.5 18C16.5041 18.4304 18.0696 19.9959 18.5 22C18.9303 19.9959 20.4959 18.4304 22.5 18Z" fill="white"/>
</svg>
