<svg width="32" height="32" viewBox="0 0 32 32" fill="none" xmlns="http://www.w3.org/2000/svg">
<path fill-rule="evenodd" clip-rule="evenodd" d="M14.3333 4.00008C14.3333 3.81637 14.4829 3.66675 14.6667 3.66675H17.3333C17.517 3.66675 17.6667 3.81637 17.6667 4.00008V5.33341V6.66675C17.6667 6.85046 17.517 7.00008 17.3333 7.00008H14.6667C14.4829 7.00008 14.3333 6.85046 14.3333 6.66675V5.33481L14.3333 5.33341L14.3333 5.33202V4.00008ZM19.6667 4.00008V4.33341H24C26.0256 4.33341 27.6667 5.97446 27.6667 8.00008V12.3334H28C29.2883 12.3334 30.3333 13.3785 30.3333 14.6667V17.3334C30.3333 18.6217 29.2883 19.6667 28 19.6667H27.6667V24.0001C27.6667 26.0257 26.0256 27.6667 24 27.6667H19.6667V28.0001C19.6667 29.2884 18.6216 30.3334 17.3333 30.3334H14.6667C13.3784 30.3334 12.3333 29.2884 12.3333 28.0001V27.6667H8C5.97438 27.6667 4.33333 26.0257 4.33333 24.0001V19.6667H4C2.71171 19.6667 1.66666 18.6217 1.66666 17.3334V14.6667C1.66666 13.3785 2.71171 12.3334 4 12.3334H4.33333V8.00008C4.33333 5.97446 5.97438 4.33341 8 4.33341H12.3333V4.00008C12.3333 2.7118 13.3784 1.66675 14.6667 1.66675H17.3333C18.6216 1.66675 19.6667 2.7118 19.6667 4.00008ZM6.33333 19.6667V24.0001C6.33333 24.9211 7.07895 25.6667 8 25.6667H12.3333V25.3334C12.3333 24.0451 13.3784 23.0001 14.6667 23.0001H17.3333C18.6216 23.0001 19.6667 24.0451 19.6667 25.3334V25.6667H24C24.921 25.6667 25.6667 24.9211 25.6667 24.0001V19.6667H25.3333C24.045 19.6667 23 18.6217 23 17.3334V14.6667C23 13.3785 24.045 12.3334 25.3333 12.3334H25.6667V8.00008C25.6667 7.07903 24.921 6.33341 24 6.33341H19.6667V6.66675C19.6667 7.95503 18.6216 9.00008 17.3333 9.00008H14.6667C13.3784 9.00008 12.3333 7.95503 12.3333 6.66675V6.33341H8C7.07895 6.33341 6.33333 7.07903 6.33333 8.00008V12.3334H6.66666C7.95495 12.3334 9 13.3785 9 14.6667V17.3334C9 18.6217 7.95495 19.6667 6.66666 19.6667H6.33333ZM5.33333 17.6667H4C3.81628 17.6667 3.66666 17.5171 3.66666 17.3334V14.6667C3.66666 14.483 3.81628 14.3334 4 14.3334H5.33193L5.33333 14.3334L5.33473 14.3334H6.66666C6.85038 14.3334 7 14.483 7 14.6667V17.3334C7 17.5171 6.85038 17.6667 6.66666 17.6667H5.33333ZM14.3333 28.0001V26.6681L14.3333 26.6667L14.3333 26.6654V25.3334C14.3333 25.1497 14.4829 25.0001 14.6667 25.0001H17.3333C17.517 25.0001 17.6667 25.1497 17.6667 25.3334V26.6667V28.0001C17.6667 28.1838 17.517 28.3334 17.3333 28.3334H14.6667C14.4829 28.3334 14.3333 28.1838 14.3333 28.0001ZM26.6667 17.6667H28C28.1837 17.6667 28.3333 17.5171 28.3333 17.3334V14.6667C28.3333 14.483 28.1837 14.3334 28 14.3334H26.6681L26.6667 14.3334L26.6653 14.3334H25.3333C25.1496 14.3334 25 14.483 25 14.6667V17.3334C25 17.5171 25.1496 17.6667 25.3333 17.6667H26.6667ZM17.2667 12.0001C17.2667 12.634 16.7546 13.1681 16.1 13.1681C15.4557 13.1681 14.9333 12.6457 14.9333 12.0014C14.9333 11.053 15.7119 10.8403 16.0855 10.8348C16.7439 10.8253 17.2667 11.3586 17.2667 12.0001ZM16.1 17.1681C16.7546 17.1681 17.2667 16.634 17.2667 16.0001C17.2667 15.3586 16.7439 14.8253 16.0855 14.8348C15.7119 14.8403 14.9333 15.053 14.9333 16.0014C14.9333 16.6457 15.4557 17.1681 16.1 17.1681ZM17.2667 20.0001C17.2667 20.634 16.7546 21.1681 16.1 21.1681C15.4557 21.1681 14.9333 20.6457 14.9333 20.0014C14.9333 19.053 15.7119 18.8403 16.0855 18.8348C16.7439 18.8253 17.2667 19.3586 17.2667 20.0001ZM19.7734 17.1681C20.4281 17.1681 20.9401 16.634 20.9401 16.0001C20.9401 15.3586 20.4173 14.8253 19.7589 14.8348C19.3854 14.8403 18.6068 15.053 18.6068 16.0014C18.6068 16.6457 19.1291 17.1681 19.7734 17.1681ZM13.1333 16.0001C13.1333 16.634 12.6213 17.1681 11.9667 17.1681C11.3224 17.1681 10.8 16.6457 10.8 16.0014C10.8 15.053 11.5786 14.8403 11.9522 14.8348C12.6105 14.8253 13.1333 15.3586 13.1333 16.0001Z" fill="#343844"/>
</svg>
