<svg width="32" height="32" viewBox="0 0 32 32" fill="none" xmlns="http://www.w3.org/2000/svg">
<path fill-rule="evenodd" clip-rule="evenodd" d="M14.3334 4.00008C14.3334 3.81637 14.483 3.66675 14.6667 3.66675H17.3334C17.5171 3.66675 17.6667 3.81637 17.6667 4.00008V5.33341V6.66675C17.6667 6.85046 17.5171 7.00008 17.3334 7.00008H14.6667C14.483 7.00008 14.3334 6.85046 14.3334 6.66675V5.33481L14.3334 5.33341L14.3334 5.33202V4.00008ZM19.6667 4.00008V4.33341H24.0001C26.0257 4.33341 27.6667 5.97446 27.6667 8.00008V12.3334H28.0001C29.2884 12.3334 30.3334 13.3785 30.3334 14.6667V17.3334C30.3334 18.6217 29.2884 19.6667 28.0001 19.6667H27.6667V24.0001C27.6667 26.0257 26.0257 27.6667 24.0001 27.6667H19.6667V28.0001C19.6667 29.2884 18.6217 30.3334 17.3334 30.3334H14.6667C13.3785 30.3334 12.3334 29.2884 12.3334 28.0001V27.6667H8.00008C5.97446 27.6667 4.33341 26.0257 4.33341 24.0001V19.6667H4.00008C2.7118 19.6667 1.66675 18.6217 1.66675 17.3334V14.6667C1.66675 13.3785 2.7118 12.3334 4.00008 12.3334H4.33341V8.00008C4.33341 5.97446 5.97446 4.33341 8.00008 4.33341H12.3334V4.00008C12.3334 2.7118 13.3785 1.66675 14.6667 1.66675H17.3334C18.6217 1.66675 19.6667 2.7118 19.6667 4.00008ZM6.33341 19.6667V24.0001C6.33341 24.9211 7.07903 25.6667 8.00008 25.6667H12.3334V25.3334C12.3334 24.0451 13.3785 23.0001 14.6667 23.0001H17.3334C18.6217 23.0001 19.6667 24.0451 19.6667 25.3334V25.6667H24.0001C24.9211 25.6667 25.6667 24.9211 25.6667 24.0001V19.6667H25.3334C24.0451 19.6667 23.0001 18.6217 23.0001 17.3334V14.6667C23.0001 13.3785 24.0451 12.3334 25.3334 12.3334H25.6667V8.00008C25.6667 7.07903 24.9211 6.33341 24.0001 6.33341H19.6667V6.66675C19.6667 7.95503 18.6217 9.00008 17.3334 9.00008H14.6667C13.3785 9.00008 12.3334 7.95503 12.3334 6.66675V6.33341H8.00008C7.07903 6.33341 6.33341 7.07903 6.33341 8.00008V12.3334H6.66675C7.95503 12.3334 9.00008 13.3785 9.00008 14.6667V17.3334C9.00008 18.6217 7.95503 19.6667 6.66675 19.6667H6.33341ZM5.33341 17.6667H4.00008C3.81637 17.6667 3.66675 17.5171 3.66675 17.3334V14.6667C3.66675 14.483 3.81637 14.3334 4.00008 14.3334H5.33202L5.33341 14.3334L5.33481 14.3334H6.66675C6.85046 14.3334 7.00008 14.483 7.00008 14.6667V17.3334C7.00008 17.5171 6.85046 17.6667 6.66675 17.6667H5.33341ZM14.3334 28.0001V26.6681L14.3334 26.6667L14.3334 26.6654V25.3334C14.3334 25.1497 14.483 25.0001 14.6667 25.0001H17.3334C17.5171 25.0001 17.6667 25.1497 17.6667 25.3334V26.6667V28.0001C17.6667 28.1838 17.5171 28.3334 17.3334 28.3334H14.6667C14.483 28.3334 14.3334 28.1838 14.3334 28.0001ZM26.6667 17.6667H28.0001C28.1838 17.6667 28.3334 17.5171 28.3334 17.3334V14.6667C28.3334 14.483 28.1838 14.3334 28.0001 14.3334H26.6681L26.6667 14.3334L26.6654 14.3334H25.3334C25.1497 14.3334 25.0001 14.483 25.0001 14.6667V17.3334C25.0001 17.5171 25.1497 17.6667 25.3334 17.6667H26.6667ZM17.2667 12.0001C17.2667 12.634 16.7547 13.1681 16.1001 13.1681C15.4558 13.1681 14.9334 12.6457 14.9334 12.0014C14.9334 11.053 15.712 10.8403 16.0856 10.8348C16.744 10.8253 17.2667 11.3586 17.2667 12.0001ZM16.1001 17.1681C16.7547 17.1681 17.2667 16.634 17.2667 16.0001C17.2667 15.3586 16.744 14.8253 16.0856 14.8348C15.712 14.8403 14.9334 15.053 14.9334 16.0014C14.9334 16.6457 15.4558 17.1681 16.1001 17.1681ZM17.2667 20.0001C17.2667 20.634 16.7547 21.1681 16.1001 21.1681C15.4558 21.1681 14.9334 20.6457 14.9334 20.0014C14.9334 19.053 15.712 18.8403 16.0856 18.8348C16.744 18.8253 17.2667 19.3586 17.2667 20.0001ZM19.7735 17.1681C20.4281 17.1681 20.9402 16.634 20.9402 16.0001C20.9402 15.3586 20.4174 14.8253 19.759 14.8348C19.3854 14.8403 18.6069 15.053 18.6069 16.0014C18.6069 16.6457 19.1292 17.1681 19.7735 17.1681ZM13.1334 16.0001C13.1334 16.634 12.6214 17.1681 11.9667 17.1681C11.3225 17.1681 10.8001 16.6457 10.8001 16.0014C10.8001 15.053 11.5787 14.8403 11.9523 14.8348C12.6106 14.8253 13.1334 15.3586 13.1334 16.0001Z" fill="#D3D6E2"/>
</svg>
